<svg xmlns="http://www.w3.org/2000/svg" viewBox="0 0 357.26 51.07"><defs><style>.a,.c{fill:#fff;}.b,.c{isolation:isolate;}</style></defs><title>FTF-logo-2016</title><rect class="a" x="175.12" width="1.19" height="51.07"/><g class="b"><path class="a" d="M221.43,2.29V7.83H209.16v5.54h11.34V18.9H209.16V29.51h-6V2.29h18.26Z" transform="translate(0 0.26)"/><path class="a" d="M247.84,2.29V7.6h-7.77V29.51h-6V7.6h-7.77V2.29h21.53Z" transform="translate(0 0.26)"/><path class="a" d="M271.29,2.29V7.83H259v5.54h11.34V18.9H259V29.51h-6V2.29h18.26Z" transform="translate(0 0.26)"/><path class="a" d="M295.52,8.79c0,4.27-3,7.19-4.42,8.69l-9.69,10h14.3v2.08H278.87V26.82l11.42-12.07A8.68,8.68,0,0,0,293,9c0-3-2.23-5.07-5.42-5.07a5.42,5.42,0,0,0-5.46,4.46l-2.69-.27c0.88-4.08,3.92-6.27,8.27-6.27S295.52,4.64,295.52,8.79Z" transform="translate(0 0.26)"/><path class="a" d="M318.2,15.9c0,9.15-3.11,14.07-9,14.07s-9-5-9-14.07,3.08-14.07,9-14.07S318.2,6.75,318.2,15.9Zm-9,12c4.27,0,6.46-4.27,6.46-12s-2.15-12-6.5-12c-4.15,0-6.42,4.23-6.42,12S305,27.9,309.2,27.9Z" transform="translate(0 0.26)"/><path class="a" d="M329.16,2.29h2V29.51h-2.31v-24l-5,4.08-1.42-1.77Z" transform="translate(0 0.26)"/><path class="a" d="M352.23,2.29l-7.42,12h0.08a7.26,7.26,0,0,1,4-1.15,8.22,8.22,0,0,1,8.34,8.38c0,4.88-3.73,8.46-8.92,8.46s-8.92-3.54-8.92-8.46c0-2.88,1.23-4.88,2.73-7.34L349.3,2.29h2.92ZM348.34,27.9a6.1,6.1,0,0,0,6.38-6.38,6.38,6.38,0,1,0-12.76,0A6.12,6.12,0,0,0,348.34,27.9Z" transform="translate(0 0.26)"/><path class="a" d="M210.72,37.24V38.1h-3.45v9.23h-0.94V38.1h-3.45V37.24h7.83Z" transform="translate(0 0.26)"/><path class="a" d="M218.58,37.24V38.1h-5.23v3.59h4.9v0.85h-4.9v3.93h5.45v0.85h-6.39V37.24h6.16Z" transform="translate(0 0.26)"/><path class="a" d="M229,38.57l-0.77.64a3.19,3.19,0,0,0-2.71-1.37,4.17,4.17,0,0,0-4.27,4.44,4.17,4.17,0,0,0,4.27,4.44,3.62,3.62,0,0,0,3-1.57l0.77,0.58a4.36,4.36,0,0,1-3.74,1.84,5.05,5.05,0,0,1-5.21-5.3,5,5,0,0,1,5.21-5.3A4.18,4.18,0,0,1,229,38.57Z" transform="translate(0 0.26)"/><path class="a" d="M232.1,37.24v4.44h5.64V37.24h0.94V47.32h-0.94V42.54H232.1v4.78h-0.94V37.24h0.94Z" transform="translate(0 0.26)"/><path class="a" d="M242.8,37.24l6.14,8.83h0V37.24h0.94V47.32h-1.21l-6.14-8.83h0v8.83h-0.94V37.24h1.21Z" transform="translate(0 0.26)"/><path class="a" d="M262.58,42.28a5.21,5.21,0,1,1-10.42,0A5.21,5.21,0,1,1,262.58,42.28Zm-5.21,4.44a4.18,4.18,0,0,0,4.27-4.44,4.27,4.27,0,1,0-8.54,0A4.18,4.18,0,0,0,257.37,46.72Z" transform="translate(0 0.26)"/><path class="a" d="M265.77,37.24v9.23h4.7v0.85h-5.64V37.24h0.94Z" transform="translate(0 0.26)"/><path class="a" d="M281.86,42.28a5.21,5.21,0,1,1-10.42,0A5.21,5.21,0,1,1,281.86,42.28Zm-5.21,4.44a4.18,4.18,0,0,0,4.27-4.44,4.27,4.27,0,1,0-8.54,0A4.18,4.18,0,0,0,276.65,46.72Z" transform="translate(0 0.26)"/><path class="a" d="M292.3,38.38l-0.68.71a4.11,4.11,0,0,0-2.95-1.25,4.18,4.18,0,0,0-4.27,4.44,4.18,4.18,0,0,0,4.29,4.44,5.36,5.36,0,0,0,2.8-.6V42.74h-2.42V41.88h3.36v4.78a7.45,7.45,0,0,1-3.76.91,5.06,5.06,0,0,1-5.21-5.3,5.06,5.06,0,0,1,5.21-5.3A4.86,4.86,0,0,1,292.3,38.38Z" transform="translate(0 0.26)"/><path class="a" d="M295,37.24L298,42l3.12-4.78h1.05L298.5,43v4.34h-0.94V43l-3.7-5.74H295Z" transform="translate(0 0.26)"/><path class="a" d="M313.53,37.24V38.1h-5.1v3.59h4.74v0.85h-4.74v4.78h-0.94V37.24h6Z" transform="translate(0 0.26)"/><path class="a" d="M325.32,42.28a5.21,5.21,0,1,1-10.42,0A5.21,5.21,0,1,1,325.32,42.28Zm-5.21,4.44a4.18,4.18,0,0,0,4.27-4.44,4.27,4.27,0,1,0-8.54,0A4.18,4.18,0,0,0,320.11,46.72Z" transform="translate(0 0.26)"/><path class="a" d="M330.29,37.24c2.33,0,3.52.93,3.52,2.65,0,1.42-.78,2.35-2.58,2.59l2.93,4.84h-1.07l-2.83-4.78h-1.75v4.78h-0.94V37.24h2.72Zm0.28,4.44c1.45,0,2.29-.71,2.29-1.79s-0.8-1.79-2.32-1.79h-2v3.59h2.06Z" transform="translate(0 0.26)"/><path class="a" d="M336.91,37.24v6.05c0,2.16.91,3.43,2.73,3.43s2.73-1.28,2.73-3.57V37.24h0.94v6.15c0,2.61-1.24,4.19-3.67,4.19S336,46,336,43.46V37.24h0.94Z" transform="translate(0 0.26)"/><path class="a" d="M347.35,37.24L351,45.7l3.67-8.46H356V47.32h-0.94V38.44h0l-3.84,8.88h-0.41l-3.9-8.88h0v8.88h-0.94V37.24h1.41Z" transform="translate(0 0.26)"/></g><polyline class="a" points="42 0.26 42 30.93 15.6 0.26 0 0.26 0 50.97 0.03 51.01 15.61 51.01 15.61 20.34 42.01 51.01 57.59 25.64 42.01 0.26"/><path class="c" d="M129.9,0H107.66L92.08,25.38l15.58,25.37h0V39.54H134c11.05,0,14.36-8.67,14.36-16.23v-6C148.34,7.41,144.75,0,129.9,0Zm3.89,20.48c0,3-1.41,6.47-5.07,6.47h-21V12.59h19.71c4.72,0,6.41,2,6.41,5.39v2.5Z" transform="translate(0 0.26)"/><polyline class="a" points="88.2 0.26 85.35 0.26 74.83 17.13 64.31 0.26 61.42 0.26 45.85 0.26 61.43 25.64 45.85 51.01 61.45 51.01 64.31 51.01 74.83 34.14 85.35 51.01 88.24 51.01 103.81 51.01 88.23 25.64 103.81 0.26 88.2 0.26"/></svg>