<?xml version="1.0" encoding="utf-8"?>
<!-- Generator: Adobe Illustrator 19.2.1, SVG Export Plug-In . SVG Version: 6.00 Build 0)  -->
<svg version="1.1" id="Layer_1" xmlns="http://www.w3.org/2000/svg" xmlns:xlink="http://www.w3.org/1999/xlink" x="0px" y="0px"
	 viewBox="0 0 237.4 81.3" style="enable-background:new 0 0 237.4 81.3;" xml:space="preserve">
<style type="text/css">
	.st0{fill:#FFFFFF;}
</style>
<g>
	<polyline class="st0" points="67.2,0 67.2,49.1 25,0 0,0 0,81.2 0,81.3 25,81.3 25,32.2 67.2,81.3 92.1,40.7 67.2,0 	"/>
	<path class="st0" d="M207.9,0h-35.6l-24.9,40.6l24.9,40.6l0,0V63.3h42.1c17.7,0,23-13.9,23-26v-9.5C237.4,11.9,231.6,0,207.9,0z
		 M214.1,32.8c0,4.8-2.3,10.4-8.1,10.4h-33.7v-23h31.5c7.5,0,10.2,3.1,10.2,8.6v4H214.1z"/>
	<polyline class="st0" points="141.1,0 136.6,0 119.7,27 102.9,0 98.3,0 73.4,0 98.3,40.7 73.4,81.3 98.3,81.3 102.9,81.3 
		119.7,54.3 136.6,81.3 141.2,81.3 166.1,81.3 141.2,40.7 166.1,0 141.1,0 	"/>
</g>
</svg>
