<svg xmlns="http://www.w3.org/2000/svg" viewBox="0 0 512 416.09"><defs><style>.a{fill:#fff;}</style></defs><title>twitter-logo</title><path class="a" d="M512,49.37A212.37,212.37,0,0,1,451.68,66,105.41,105.41,0,0,0,497.9,7.81a208.72,208.72,0,0,1-66.73,25.5,105,105,0,0,0-181.73,71.83,102.84,102.84,0,0,0,2.71,24A297.69,297.69,0,0,1,35.59,19.2,105.25,105.25,0,0,0,68.24,159.6a102.6,102.6,0,0,1-47.74-13.13v1.3a105.14,105.14,0,0,0,84.3,103.07,105.74,105.74,0,0,1-27.67,3.69,99.1,99.1,0,0,1-19.75-2,105.21,105.21,0,0,0,98.19,73,210.61,210.61,0,0,1-130.52,45A212.93,212.93,0,0,1,0,369.11a293.61,293.61,0,0,0,160.79,47.52c193.45,0,299.13-160.25,299.13-299.24,0-4.56-.11-9.11-0.33-13.56A213.83,213.83,0,0,0,512,49.37Z"/></svg>